<svg xmlns="http://www.w3.org/2000/svg" viewBox="0 0 341.7 64">
    <path fill="#2a9c66"
          d="M0 32.2C-.1 14.5 14.2.1 31.9.1h22.2v25.8H42V3.6h-6.4c-.7 0-1.4.2-2 .4h.1c-2.2.9-3.7 3.1-3.7 5.6v44.9c0 3.3 2.7 6 6 6h6.1V38.2h12.1V64H32.3C14.7 63.9.1 49.9 0 32.2Z"></path>
    <path fill="#2a9c66"
          d="M33.6 4c.6-.3 1.3-.4 2-.4-.6 0-1.3.2-2 .4ZM66.3 63.9V0h6.1c3.3 0 6 2.7 6 6v51.9c0 3.3-2.7 6-6 6h-6.1Z"></path>
    <path fill="#18203D"
          d="M95.3 13.4c0-7.6 5.8-13 13.7-13 4.4 0 8 1.6 10.4 4.5l-3.7 3.5c-1.7-1.9-3.8-3-6.3-3-4.7 0-8.1 3.3-8.1 8.1s3.3 8.1 8.1 8.1c2.5 0 4.6-1 6.3-3l3.7 3.5c-2.4 2.9-6 4.5-10.4 4.5-7.9-.2-13.7-5.6-13.7-13.2ZM121.7 13.4c0-7.5 5.8-13 13.8-13s13.8 5.5 13.8 13-5.9 13-13.8 13-13.8-5.5-13.8-13Zm21.6 0c0-4.8-3.4-8.1-7.9-8.1s-7.9 3.3-7.9 8.1 3.4 8.1 7.9 8.1c4.6-.1 7.9-3.3 7.9-8.1ZM177.3 26V10.9l-7.4 12.5h-2.6l-7.4-12.1V26h-5.5V.8h4.8l9.4 15.7L177.9.8h4.8l.1 25.2h-5.5ZM212.3 26V10.9l-7.4 12.5h-2.6l-7.4-12.1V26h-5.5V.8h4.8l9.4 15.7L212.9.8h4.8l.1 25.2h-5.5ZM224.2 14.9V.8h5.8v13.9c0 4.8 2.1 6.8 5.6 6.8s5.6-2 5.6-6.8V.8h5.8v14.1c0 7.4-4.2 11.5-11.4 11.5s-11.4-4.1-11.4-11.5ZM276.5.8V26h-4.8l-12.6-15.3V26h-5.8V.8h4.8l12.5 15.3V.8h5.9ZM283.2.8h5.8V26h-5.8V.8ZM300.6 5.5h-8.1V.7h22v4.8h-8.1V26h-5.8V5.5ZM332 17.1V26h-5.8v-9L316.4.8h6.2l6.7 11.2L336 .8h5.7L332 17.1ZM118.4 38.5v25.2h-5.8V53.4h-11.4v10.3h-5.8V38.5h5.8v9.9h11.4v-9.9h5.8ZM125 38.5h5.8v25.2H125V38.5ZM161.7 38.5l-10.9 25.2H145l-10.9-25.2h6.3l7.7 18 7.8-18h5.8ZM184.6 59v4.7h-19.5V38.5h19v4.7h-13.2v5.5h11.7v4.5h-11.7V59h13.7Z"></path>
</svg>