<svg width="512" height="512" viewBox="0 0 512 512" fill="none" xmlns="http://www.w3.org/2000/svg">
  <rect width="512" height="512" rx="105" fill="#204b43"/>
  <g transform="translate(256, 256) scale(1.9)">
    <g transform="scale(1.5317)">
      <g transform="translate(0, 0)">
        <path fill="white" transform="translate(-175, -139.95)" d="M 233.2 102.1 L 178.7 70.6 C 177.5 69.9 176.3 69.6 175 69.6 C 173.7 69.6 172.4 69.9 171.3 70.6 L 116.8 102.1 C 114.5 103.4 113.1 105.9 113.1 108.6 L 113.1 171.5 C 113.1 174.2 114.5 176.6 116.8 178 L 165.2 205.9 L 165.2 205.9 L 171.3 209.4 C 171.9 209.7 172.5 210 173.1 210.1 C 173.7 210.3 174.4 210.3 175 210.3 C 175.6 210.3 176.3 210.2 176.9 210.1 C 177.5 209.9 178.1 209.7 178.7 209.4 L 184.4 206.1 L 184.4 206.1 L 233.2 177.9 C 235.5 176.6 236.9 174.1 236.9 171.4 L 236.9 108.5 C 236.9 105.9 235.5 103.4 233.2 102.1 z M 232.2 171.5 C 232.2 172.5 231.7 173.3 230.9 173.8 L 183.9 200.9 L 180.7 173 C 180.7 173 187.1 171 187.4 164.2 C 187.4 163.7 187.1 163.3 186.6 163.2 C 185.2 163 182.4 162.9 179.7 164 C 179.4 164.1 179.1 164.1 178.8 163.9 C 177.9 163.3 175.6 161.9 173.5 162.1 C 173.2 162.1 173 162.3 173 162.6 L 172.9 163.3 C 172.9 163.3 170.8 162.2 168.8 162.3 C 168.8 162.3 172.1 161.1 172.8 158.2 C 173 157.4 172.9 156.8 172.8 156.3 C 172.5 155.3 171.4 154.7 170.4 154.9 L 162.3 156.8 C 161.9 156.9 161.6 157.2 161.6 157.6 C 161.4 159.1 161.2 162.6 163 164.3 C 163 164.3 161.8 164 161.6 164.8 C 161.5 165.6 162 171 168.4 172.9 L 165.7 200.5 L 119.2 173.6 C 118.4 173.1 117.9 172.2 117.9 171.3 L 117.9 108.4 C 117.9 107.4 118.4 106.6 119.2 106.1 L 173.7 74.6 C 174.1 74.4 174.6 74.2 175 74.2 C 175.4 74.2 175.9 74.3 176.3 74.6 L 230.8 106.1 C 231.6 106.6 232.1 107.5 232.1 108.4 L 232.1 171.5 z"/>
      </g>
      <g transform="translate(-44.6, 26)">
        <path fill="white" transform="translate(-130.4, -165.95)" d="M 129.4 153 C 129.2 152.5 128.6 152.2 128.1 152.4 L 122.9 154.5 C 122.4 154.7 122.1 155.3 122.3 155.8 L 125.9 164.9 L 124.1 165.6 C 123.6 165.8 123.3 166.4 123.5 166.9 L 124.7 169.9 C 124.9 170.4 125.5 170.7 126 170.5 L 127.8 169.8 L 131.4 178.9 C 131.6 179.4 132.2 179.7 132.7 179.5 L 137.9 177.4 C 138.4 177.2 138.7 176.6 138.5 176.1 L 129.4 153 z"/>
      </g>
      <g transform="translate(43.22, 26)">
        <path fill="white" transform="translate(-218.22, -165.95)" d="M 225.8 154.5 L 220.6 152.4 C 220.1 152.2 219.5 152.4 219.3 153 L 210.1 176.1 C 209.9 176.6 210.1 177.2 210.7 177.4 L 215.9 179.5 C 216.4 179.7 217 179.5 217.2 178.9 L 220.8 169.8 L 222.6 170.5 C 223.1 170.7 223.7 170.5 223.9 169.9 L 225.1 166.9 C 225.3 166.4 225.1 165.8 224.5 165.6 L 222.7 164.9 L 226.3 155.8 C 226.6 155.3 226.3 154.7 225.8 154.5 z"/>
      </g>
      <g transform="translate(27.23, 22.25)">
        <path fill="white" transform="translate(-202.23, -162.2)" d="M 216.8 147 L 211.6 144.9 C 211.1 144.7 210.5 144.9 210.3 145.5 L 205.1 158.4 C 203.6 157.9 197.1 156 188.2 154.8 C 188.1 156.5 187.6 158.3 187 159.9 C 195.1 161 201.3 162.7 203.2 163.2 L 198 176.1 C 197.8 176.6 198 177.2 198.6 177.4 L 203.8 179.5 C 204.3 179.7 204.9 179.5 205.1 178.9 L 217.4 148.2 C 217.6 147.7 217.3 147.2 216.8 147 z"/>
      </g>
      <g transform="translate(-29.13, 22.2)">
        <path fill="white" transform="translate(-145.87, -162.15)" d="M 143.6 158.3 L 138.4 145.4 C 138.2 144.9 137.6 144.6 137.1 144.8 L 131.9 146.9 C 131.4 147.1 131.1 147.7 131.3 148.2 L 143.6 178.9 C 143.8 179.4 144.4 179.7 144.9 179.5 L 150.1 177.4 C 150.6 177.2 150.9 176.6 150.7 176.1 L 145.5 163.2 C 147.3 162.7 152.7 161.2 159.8 160.1 C 159.8 159.1 159.8 158.3 159.9 157.6 C 160 157.1 160.2 156.6 160.5 156.3 C 160.4 155.8 160.4 155.3 160.4 154.8 C 151.6 155.9 145 157.9 143.6 158.3 z"/>
      </g>
      <g transform="translate(7.73, 16.94)">
        <path fill="white" transform="translate(-182.73, -156.89)" d="M 182.5 152.3 C 182.3 154.2 181 157.3 181 157.3 C 180 161 178 162.1 179 163.1 C 179.1 163.1 179.1 163.2 179.2 163.2 C 180.9 162.5 182.6 162.3 184 162.2 C 184 162.2 184 162.2 184.1 162.1 C 186 159.2 187.4 154.6 186.4 152.1 C 185.4 149.7 182.7 150.4 182.5 152.3 z"/>
      </g>
      <g transform="translate(-10.2, 11.55)">
        <path fill="white" transform="translate(-164.8, -151.5)" d="M 163.7 147.8 C 162.2 149.4 161.8 153 162.1 156.1 L 167.2 154.9 C 167.2 154.8 167.2 154.8 167.2 154.7 C 167.2 154.7 167.1 151.3 167.5 149.5 C 168.1 147.5 165.6 145.8 163.7 147.8 z"/>
      </g>
      <g transform="translate(2.58, 15.15)">
        <path fill="white" transform="translate(-177.58, -155.1)" d="M 181.9 150.6 C 181.9 150.6 181.1 148.1 178.5 148 C 175.9 147.9 175.6 150.4 175 152.9 C 174.7 154.1 174.2 155.8 173.7 157.4 C 173.7 157.7 173.6 158 173.6 158.4 C 173.5 158.7 173.4 159 173.3 159.3 C 173.2 160.1 173.1 160.8 173.2 161.3 C 173.2 161.3 173.2 161.3 173.2 161.3 C 174.6 161.2 176 161.6 177.2 162.2 C 177.4 162.2 177.5 162.1 177.6 162.1 C 178.9 161.8 179.9 158.3 181.1 155.3 C 182.4 152.3 181.9 150.6 181.9 150.6 z"/>
      </g>
      <g transform="translate(-3.57, 11.74)">
        <path fill="white" transform="translate(-171.43, -151.69)" d="M 173.8 157 C 174.1 155.9 174.4 154.6 174.7 153.3 C 175.5 150.1 174.7 148.5 174.7 148.5 C 174.7 148.5 173.6 146.1 171 146.4 C 168.4 146.7 168.4 149.1 168.2 151.7 C 168.1 152.5 168 153.5 167.8 154.6 L 170.2 154 C 171.7 153.6 173.3 154.5 173.7 156 C 173.7 156.4 173.8 156.7 173.8 157 z"/>
      </g>
      <g transform="translate(0, -38.75)">
        <path fill="white" transform="translate(-175, -101.2)" d="M 184 101.8 C 183.4 90 179.2 87.2 175 83.9 C 170.8 87.2 166.6 89.9 166 101.8 C 165.5 111.7 172.2 117 174.3 118.5 L 174.5 111.6 L 169.7 102.3 L 174.5 108.9 L 175 87.5 L 175.3 104.7 L 180.8 98.5 L 175.3 107.4 L 175.5 118.5 C 177.6 117.2 184.5 111.9 184 101.8 z"/>
      </g>
      <g transform="translate(24.43, -29.42)">
        <path fill="white" transform="translate(-199.43, -110.53)" d="M 206.2 116.4 C 213.2 106.8 211.6 102.1 210.4 96.9 C 205.1 96.9 200.1 96.3 192.2 105.2 C 185.6 112.6 187.5 120.9 188.2 123.4 L 192.7 118.1 L 194.8 107.9 L 194.4 116.1 L 208.2 99.8 L 197.6 113.3 L 205.8 111.9 L 195.9 115.4 L 189.1 124.1 C 191.6 124.3 200.2 124.5 206.2 116.4 z"/>
      </g>
      <g transform="translate(38.5, -11.47)">
        <path fill="white" transform="translate(-213.5, -128.48)" d="M 217.7 136.4 C 227.7 130 227.9 124.9 228.6 119.7 C 223.6 117.7 219.2 115.4 208.6 120.9 C 199.8 125.5 198.5 133.9 198.4 136.5 L 204.5 133.2 L 210.1 124.4 L 206.8 131.9 L 225.5 121.6 L 210.8 130.4 L 218.9 132.1 L 208.4 131.9 L 198.9 137.6 C 201.2 138.6 209.2 141.9 217.7 136.4 z"/>
      </g>
      <g transform="translate(-24.43, -29.42)">
        <path fill="white" transform="translate(-150.57, -110.53)" d="M 143.8 116.4 C 136.8 106.8 138.4 102.1 139.6 96.9 C 144.9 96.9 149.9 96.3 157.8 105.2 C 164.4 112.6 162.5 120.9 161.8 123.4 L 157.3 118.1 L 155.2 107.9 L 155.6 116.1 L 141.8 99.8 L 152.4 113.3 L 144.2 111.9 L 154.1 115.4 L 160.9 124.1 C 158.4 124.3 149.8 124.5 143.8 116.4 z"/>
      </g>
      <g transform="translate(-38.5, -12.37)">
        <path fill="white" transform="translate(-136.5, -127.58)" d="M 132.3 135.5 C 122.3 129.1 122.1 124 121.4 118.8 C 126.4 116.8 130.8 114.5 141.4 120 C 150.2 124.6 151.5 133 151.6 135.6 L 145.5 132.3 L 139.9 123.5 L 143.2 131 L 124.5 120.7 L 139.2 129.5 L 131.1 131.2 L 141.6 131 L 151.1 136.7 C 148.8 137.7 140.8 141 132.3 135.5 z"/>
      </g>
      <g transform="translate(6.24, -14.55)">
        <path fill="white" transform="translate(-181.24, -125.4)" d="M 185.4 126.9 C 186.8 121.4 185.3 119.6 183.8 117.4 C 181.4 118.3 179.1 118.9 177.1 124.3 C 175.5 128.8 177.7 132.1 178.5 133.1 L 179.6 130 L 178.7 125.1 L 180 128.8 L 183.3 119.1 L 181 127 L 184.4 125 L 180.6 128.3 L 179.1 133.4 C 180.2 133 184.1 131.6 185.4 126.9 z"/>
      </g>
      <g transform="translate(16.15, -6.89)">
        <path fill="white" transform="translate(-191.15, -133.06)" d="M 193.4 136.7 C 198 133.3 197.9 130.9 198.1 128.4 C 195.7 127.6 193.5 126.7 188.6 129.6 C 184.5 132.1 184.2 136.1 184.2 137.3 L 187 135.5 L 189.4 131.1 L 188 134.8 L 196.7 129.3 L 189.9 134 L 193.8 134.5 L 188.8 134.7 L 184.4 137.7 C 185.6 138.3 189.5 139.6 193.4 136.7 z"/>
      </g>
      <g transform="translate(20.1, 3.38)">
        <path fill="white" transform="translate(-195.1, -143.33)" d="M 195.8 147.5 C 201.3 146 202.1 143.7 203.2 141.4 C 201.2 139.8 199.5 138.1 193.9 139.1 C 189.2 139.9 187.4 143.6 187 144.7 L 190.3 144 L 194.1 140.8 L 191.5 143.8 L 201.5 141.8 L 193.5 143.7 L 197 145.6 L 192.2 144 L 187 145.2 C 187.9 146.2 191.1 148.8 195.8 147.5 z"/>
      </g>
      <g transform="translate(-22, 3.38)">
        <path fill="white" transform="translate(-153, -143.33)" d="M 152.3 147.5 C 146.8 146 146 143.7 144.9 141.4 C 146.9 139.8 148.6 138.1 154.2 139.1 C 158.9 139.9 160.7 143.6 161.1 144.7 L 157.8 144 L 154 140.8 L 156.6 143.8 L 146.6 141.8 L 154.6 143.7 L 151.1 145.6 L 155.9 144 L 161.1 145.2 C 160.1 146.2 156.9 148.8 152.3 147.5 z"/>
      </g>
      <g transform="translate(-6.11, -13.9)">
        <path fill="white" transform="translate(-168.89, -126.05)" d="M 164.9 127.8 C 163.1 122.4 164.5 120.5 165.8 118.3 C 168.2 119 170.6 119.5 172.9 124.7 C 174.9 129 172.8 132.6 172.1 133.6 L 170.8 130.5 L 171.3 125.5 L 170.3 129.3 L 166.3 119.9 L 169.2 127.6 L 165.7 125.8 L 169.7 128.8 L 171.6 133.8 C 170.4 133.5 166.5 132.4 164.9 127.8 z"/>
      </g>
      <g transform="translate(-15.12, -7.65)">
        <path fill="white" transform="translate(-159.88, -132.3)" d="M 156.8 135.3 C 153.2 130.9 153.8 128.6 154.2 126.1 C 156.7 125.9 159.1 125.5 163.2 129.5 C 166.6 132.9 165.9 136.9 165.6 138.1 L 163.3 135.7 L 162 130.9 L 162.4 134.8 L 155.3 127.4 L 160.8 133.5 L 156.9 133.1 L 161.7 134.5 L 165.2 138.5 C 164 138.7 159.9 139.1 156.8 135.3 z"/>
      </g>
    </g>
  </g>
</svg>
